<mxfile host="app.diagrams.net" modified="2022-04-19T20:31:42.705Z" agent="5.0 (Windows NT 10.0; Win64; x64) AppleWebKit/537.36 (KHTML, like Gecko) Chrome/100.0.4896.88 Safari/537.36" etag="cse3QTpX8fvLtjwryWIh" version="17.4.5" type="github">
  <diagram id="W_qvDuB_b1VlOcnt2k5F" name="Page-1">
    <mxGraphModel dx="1662" dy="762" grid="1" gridSize="10" guides="1" tooltips="1" connect="1" arrows="1" fold="1" page="1" pageScale="1" pageWidth="827" pageHeight="1169" math="0" shadow="0">
      <root>
        <mxCell id="0" />
        <mxCell id="1" parent="0" />
        <mxCell id="8PcyPdKttwNx2litObX_-2" value="&lt;&lt;interface&gt;&gt;&#xa;DatabaseAccess" style="swimlane;fontStyle=1;align=center;verticalAlign=top;childLayout=stackLayout;horizontal=1;startSize=40;horizontalStack=0;resizeParent=1;resizeParentMax=0;resizeLast=0;collapsible=1;marginBottom=0;" parent="1" vertex="1">
          <mxGeometry x="371" y="270" width="320" height="120" as="geometry" />
        </mxCell>
        <mxCell id="8PcyPdKttwNx2litObX_-3" value="+ field: type" style="text;strokeColor=none;fillColor=none;align=left;verticalAlign=top;spacingLeft=4;spacingRight=4;overflow=hidden;rotatable=0;points=[[0,0.5],[1,0.5]];portConstraint=eastwest;" parent="8PcyPdKttwNx2litObX_-2" vertex="1">
          <mxGeometry y="40" width="320" height="26" as="geometry" />
        </mxCell>
        <mxCell id="8PcyPdKttwNx2litObX_-4" value="" style="line;strokeWidth=1;fillColor=none;align=left;verticalAlign=middle;spacingTop=-1;spacingLeft=3;spacingRight=3;rotatable=0;labelPosition=right;points=[];portConstraint=eastwest;" parent="8PcyPdKttwNx2litObX_-2" vertex="1">
          <mxGeometry y="66" width="320" height="8" as="geometry" />
        </mxCell>
        <mxCell id="8PcyPdKttwNx2litObX_-5" value="+ insertNewRow(rowData: String[*]): integer&#xa;+ getSearchResults (queryString: String): String [*]&#xa;" style="text;strokeColor=none;fillColor=none;align=left;verticalAlign=top;spacingLeft=4;spacingRight=4;overflow=hidden;rotatable=0;points=[[0,0.5],[1,0.5]];portConstraint=eastwest;" parent="8PcyPdKttwNx2litObX_-2" vertex="1">
          <mxGeometry y="74" width="320" height="46" as="geometry" />
        </mxCell>
        <mxCell id="8PcyPdKttwNx2litObX_-6" value="DatabaseRealAccess" style="swimlane;fontStyle=1;align=center;verticalAlign=top;childLayout=stackLayout;horizontal=1;startSize=26;horizontalStack=0;resizeParent=1;resizeParentMax=0;resizeLast=0;collapsible=1;marginBottom=0;" parent="1" vertex="1">
          <mxGeometry x="220" y="508" width="290" height="110" as="geometry" />
        </mxCell>
        <mxCell id="8PcyPdKttwNx2litObX_-7" value="- dataBase" style="text;strokeColor=none;fillColor=none;align=left;verticalAlign=top;spacingLeft=4;spacingRight=4;overflow=hidden;rotatable=0;points=[[0,0.5],[1,0.5]];portConstraint=eastwest;" parent="8PcyPdKttwNx2litObX_-6" vertex="1">
          <mxGeometry y="26" width="290" height="26" as="geometry" />
        </mxCell>
        <mxCell id="8PcyPdKttwNx2litObX_-8" value="" style="line;strokeWidth=1;fillColor=none;align=left;verticalAlign=middle;spacingTop=-1;spacingLeft=3;spacingRight=3;rotatable=0;labelPosition=right;points=[];portConstraint=eastwest;" parent="8PcyPdKttwNx2litObX_-6" vertex="1">
          <mxGeometry y="52" width="290" height="8" as="geometry" />
        </mxCell>
        <mxCell id="8PcyPdKttwNx2litObX_-9" value="+ insertNewRow(rowData: String[*]): integer&#xa;+ getSearchResults (queryString: String): String [*]&#xa;" style="text;strokeColor=none;fillColor=none;align=left;verticalAlign=top;spacingLeft=4;spacingRight=4;overflow=hidden;rotatable=0;points=[[0,0.5],[1,0.5]];portConstraint=eastwest;" parent="8PcyPdKttwNx2litObX_-6" vertex="1">
          <mxGeometry y="60" width="290" height="50" as="geometry" />
        </mxCell>
        <mxCell id="8PcyPdKttwNx2litObX_-11" value="" style="endArrow=block;dashed=1;endFill=0;endSize=12;html=1;rounded=0;exitX=0.5;exitY=0;exitDx=0;exitDy=0;" parent="1" source="8PcyPdKttwNx2litObX_-6" target="8PcyPdKttwNx2litObX_-5" edge="1">
          <mxGeometry width="160" relative="1" as="geometry">
            <mxPoint x="420" y="320" as="sourcePoint" />
            <mxPoint x="580" y="320" as="targetPoint" />
          </mxGeometry>
        </mxCell>
        <mxCell id="8PcyPdKttwNx2litObX_-12" value="DatabaseAcessProxy" style="swimlane;fontStyle=1;align=center;verticalAlign=top;childLayout=stackLayout;horizontal=1;startSize=26;horizontalStack=0;resizeParent=1;resizeParentMax=0;resizeLast=0;collapsible=1;marginBottom=0;" parent="1" vertex="1">
          <mxGeometry x="670" y="480" width="340" height="190" as="geometry" />
        </mxCell>
        <mxCell id="8PcyPdKttwNx2litObX_-13" value="- logged:boolean&#xa;- password: String" style="text;strokeColor=none;fillColor=none;align=left;verticalAlign=top;spacingLeft=4;spacingRight=4;overflow=hidden;rotatable=0;points=[[0,0.5],[1,0.5]];portConstraint=eastwest;" parent="8PcyPdKttwNx2litObX_-12" vertex="1">
          <mxGeometry y="26" width="340" height="44" as="geometry" />
        </mxCell>
        <mxCell id="8PcyPdKttwNx2litObX_-14" value="" style="line;strokeWidth=1;fillColor=none;align=left;verticalAlign=middle;spacingTop=-1;spacingLeft=3;spacingRight=3;rotatable=0;labelPosition=right;points=[];portConstraint=eastwest;" parent="8PcyPdKttwNx2litObX_-12" vertex="1">
          <mxGeometry y="70" width="340" height="8" as="geometry" />
        </mxCell>
        <mxCell id="8PcyPdKttwNx2litObX_-15" value="+ insertNewRow(rowData: String[*]): integer&#xa;+ getSearchResults (queryString: String): String [*]&#xa;&#xa;+logIn(password: String): boolean&#xa;+ getLogged(): boolean" style="text;strokeColor=none;fillColor=none;align=left;verticalAlign=top;spacingLeft=4;spacingRight=4;overflow=hidden;rotatable=0;points=[[0,0.5],[1,0.5]];portConstraint=eastwest;" parent="8PcyPdKttwNx2litObX_-12" vertex="1">
          <mxGeometry y="78" width="340" height="112" as="geometry" />
        </mxCell>
        <mxCell id="8PcyPdKttwNx2litObX_-16" value="" style="endArrow=block;dashed=1;endFill=0;endSize=12;html=1;rounded=0;exitX=0.5;exitY=0;exitDx=0;exitDy=0;entryX=0.459;entryY=1.009;entryDx=0;entryDy=0;entryPerimeter=0;" parent="1" source="8PcyPdKttwNx2litObX_-12" target="8PcyPdKttwNx2litObX_-5" edge="1">
          <mxGeometry width="160" relative="1" as="geometry">
            <mxPoint x="424.0000000000001" y="500" as="sourcePoint" />
            <mxPoint x="519.1219512195121" y="400" as="targetPoint" />
          </mxGeometry>
        </mxCell>
        <mxCell id="8PcyPdKttwNx2litObX_-17" value="" style="endArrow=diamondThin;endFill=0;endSize=24;html=1;rounded=0;entryX=-0.003;entryY=0.799;entryDx=0;entryDy=0;entryPerimeter=0;exitX=0.995;exitY=-0.07;exitDx=0;exitDy=0;exitPerimeter=0;" parent="1" source="8PcyPdKttwNx2litObX_-9" target="8PcyPdKttwNx2litObX_-13" edge="1">
          <mxGeometry width="160" relative="1" as="geometry">
            <mxPoint x="560" y="550" as="sourcePoint" />
            <mxPoint x="720" y="470" as="targetPoint" />
          </mxGeometry>
        </mxCell>
        <mxCell id="8PcyPdKttwNx2litObX_-18" value="-database&lt;br&gt;1" style="text;html=1;align=center;verticalAlign=middle;resizable=0;points=[];autosize=1;strokeColor=none;fillColor=none;" parent="1" vertex="1">
          <mxGeometry x="505" y="570" width="70" height="30" as="geometry" />
        </mxCell>
      </root>
    </mxGraphModel>
  </diagram>
</mxfile>
